<svg viewBox="0 0 800 241.2"> <style type="text/css"> </style> <g id="XMLID_199_"> <g id="XMLID_574_"> <linearGradient id="XMLID_2_" gradientUnits="userSpaceOnUse" x1="721.8391" y1="74.2483" x2="15.05" y2="74.2483"> <stop  offset="0" style="stop-color:#864399"/> <stop  offset="1" style="stop-color:#48297A"/> </linearGradient> <path id="XMLID_584_" class="st0" d="M334.1,8c-38.5,0-69.3,27.6-69.3,66.3c0,39,30.8,66.3,69.3,66.3c38.7,0,69.5-27.3,69.5-66.3 C403.6,35.5,372.8,8,334.1,8z M334.1,113.7c-20.4,0-37.5-15.9-37.5-39.5c0-23.3,17.1-39.5,37.5-39.5c20.6,0,37.7,16.1,37.7,39.5 C371.8,97.8,354.7,113.7,334.1,113.7z"/> <linearGradient id="XMLID_3_" gradientUnits="userSpaceOnUse" x1="721.8391" y1="74.2483" x2="15.0501" y2="74.2483"> <stop  offset="0" style="stop-color:#864399"/> <stop  offset="1" style="stop-color:#48297A"/> </linearGradient> <path id="XMLID_581_" class="st1" d="M486.4,8c-38.5,0-69.3,27.6-69.3,66.3c0,39,30.8,66.3,69.3,66.3c38.7,0,69.5-27.3,69.5-66.3 C555.9,35.5,525.1,8,486.4,8z M486.4,113.7c-20.4,0-37.5-15.9-37.5-39.5c0-23.3,17.1-39.5,37.5-39.5c20.6,0,37.7,16.1,37.7,39.5 C524.1,97.8,507,113.7,486.4,113.7z"/> <linearGradient id="XMLID_4_" gradientUnits="userSpaceOnUse" x1="721.8385" y1="120.809" x2="15.0475" y2="120.809"> <stop  offset="0" style="stop-color:#864399"/> <stop  offset="1" style="stop-color:#48297A"/> </linearGradient> <path id="XMLID_580_" class="st2" d="M778,102.6c-10.1,0-18.2,8.2-18.2,18.2c0,10.1,8.2,18.2,18.2,18.2c10.1,0,18.2-8.2,18.2-18.2 C796.2,110.7,788,102.6,778,102.6z"/> <linearGradient id="XMLID_5_" gradientUnits="userSpaceOnUse" x1="721.8387" y1="74.2483" x2="15.05" y2="74.2483"> <stop  offset="0" style="stop-color:#864399"/> <stop  offset="1" style="stop-color:#48297A"/> </linearGradient> <path id="XMLID_577_" class="st3" d="M68.1,8C30.1,8,3.8,35.3,3.8,74.2c0,36,26.1,66.3,68,66.3c21.7,0,37.7-9.1,45.5-14.7 c3.2-2.3,4-6.7,2-10l-5.4-9c-2.2-3.7-7-4.8-10.6-2.5c-6.3,4.1-16.8,9.4-29.2,9.4c-18.6,0-34.7-11.8-37.8-33.1 c-0.1-0.8,0.5-2.4,1.3-2.4h76.3c5.8,0,10.5-3.8,10.4-9.6c0-0.5,0-0.5,0-1C124.2,34.2,104.3,8,68.1,8z M90.6,58.4H38.7 c-0.8,0-1.5-1.1-1.3-1.9c3.9-14.9,15.1-24.1,30.7-24.1c12.5,0,22.7,10,23.8,24.4C91.9,57.6,91.3,58.4,90.6,58.4z"/> <linearGradient id="XMLID_6_" gradientUnits="userSpaceOnUse" x1="721.8389" y1="72.8695" x2="15.0503" y2="72.8695"> <stop  offset="0" style="stop-color:#864399"/> <stop  offset="1" style="stop-color:#48297A"/> </linearGradient> <path id="XMLID_576_" class="st4" d="M246.1,96.4H228c-2.9,0-3.3,3.4-3.3,6.3v0.8c0,3.7-3.2,5.6-6.6,5.6h-27.8H188 c-3.3,0-5.1-3.8-3.1-6.4c1.2-1.5,2.5-3.2,4.1-5.1l53.5-66.4c2.6-3.2,3.2-6.9,3.2-11c0-6-4.9-10.7-10.9-10.7h-80.4 c-11.9,0-16.7,4.9-16.7,16.6v17.8c0,3.1,1.1,5.5,4.1,5.5h18.7c2.5,0,4.3-1.9,4.3-4.4v-2.2c0-3.7,3.2-6.1,6.9-6.1c0,0,18.6,0,26,0 c2.3,0,5.6,2.2,1.5,6.8c-1.8,2-58.9,72-58.9,72c-1.9,2.4-2.7,5.2-2.7,8.2v0.1c0,6.6,3.9,12.4,10.5,12.4h87.1 c11.7,0,16.4-5.4,16.4-17.3v-16.1C251.9,99.8,249.1,96.4,246.1,96.4z"/> <linearGradient id="XMLID_7_" gradientUnits="userSpaceOnUse" x1="721.8386" y1="73.4051" x2="15.0494" y2="73.4051"> <stop  offset="0" style="stop-color:#864399"/> <stop  offset="1" style="stop-color:#48297A"/> </linearGradient> <path id="XMLID_575_" class="st5" d="M684.4,8c-12.9,0-24.9,5-33.9,13.2C642,12.9,631.4,8,618.3,8c-27.1,0-48.9,22.1-48.9,48.2 V129c0,5,4.1,9.1,9.1,9.1h10.9c5,0,9.1-4.1,9.1-9.1V56.2c0-9.2,10-17.5,20.1-17.5c9.6,0,17.9,7.5,17.9,17.1v74 c0,5,4.1,9.1,9.1,9.1h10.9c5,0,9.1-4.1,9.1-9.1V56.2c0-9.2,10-17.5,20.1-17.5c9.6,0,17.9,7.5,17.9,17.1V129c0,5,4.1,9.1,9.1,9.1 h10.9c5,0,9.1-4.1,9.1-9.1V55.8C732.3,29,711.3,8,684.4,8z"/> </g> <g id="XMLID_200_"> <linearGradient id="XMLID_8_" gradientUnits="userSpaceOnUse" x1="741.0955" y1="219.4299" x2="34.3065" y2="219.4299"> <stop  offset="0" style="stop-color:#864399"/> <stop  offset="1" style="stop-color:#48297A"/> </linearGradient> <path id="XMLID_571_" class="st6" d="M354.2,231.8l11.7-25.6c0.4-0.9,1-1.4,2.1-1.4h0.2c1,0,1.7,0.5,2,1.4l11.7,25.6 c0.1,0.3,0.2,0.6,0.2,0.8c0,0.9-0.7,1.6-1.6,1.6c-0.8,0-1.3-0.5-1.6-1.2l-3-6.6H360l-3,6.7c-0.3,0.7-0.8,1.1-1.6,1.1 c-0.8,0-1.5-0.7-1.5-1.5C354,232.4,354,232.1,354.2,231.8z M374.6,223.3l-6.6-14.8l-6.6,14.8H374.6z"/> <linearGradient id="XMLID_9_" gradientUnits="userSpaceOnUse" x1="741.0933" y1="219.4917" x2="34.3088" y2="219.4917"> <stop  offset="0" style="stop-color:#864399"/> <stop  offset="1" style="stop-color:#48297A"/> </linearGradient> <path id="XMLID_569_" class="st7" d="M390.5,219.6L390.5,219.6c0-8,5.8-15,14.5-15c4.4,0,7.2,1.2,9.9,3.1c0.4,0.3,0.7,0.7,0.7,1.3 c0,0.9-0.7,1.7-1.6,1.7c-0.4,0-0.7-0.2-1-0.4c-2.1-1.6-4.4-2.6-8-2.6c-6.4,0-11,5.4-11,11.9v0.1c0,6.9,4.4,12,11.4,12 c3.3,0,6.4-1.3,8.3-2.9v-7.2h-7.8c-0.8,0-1.4-0.7-1.4-1.4c0-0.8,0.7-1.5,1.4-1.5h9.3c0.9,0,1.6,0.7,1.6,1.7v8.8 c0,0.8-0.4,1.5-1.1,2c-2.6,1.9-6.2,3.5-10.5,3.5C396.1,234.4,390.5,227.8,390.5,219.6z"/> <linearGradient id="XMLID_10_" gradientUnits="userSpaceOnUse" x1="741.0983" y1="215.4233" x2="34.3004" y2="215.4233"> <stop  offset="0" style="stop-color:#864399"/> <stop  offset="1" style="stop-color:#48297A"/> </linearGradient> <path id="XMLID_378_" class="st8" d="M429.1,232.3v-25.6c0-0.9,0.7-1.7,1.6-1.7h18c0.8,0,1.5,0.7,1.5,1.5c0,0.8-0.7,1.5-1.5,1.5 h-16.3v9.9h14.5c0.8,0,1.5,0.7,1.5,1.5c0,0.8-0.7,1.5-1.5,1.5h-14.5V231h16.5c0.8,0,1.5,0.7,1.5,1.5c0,0.8-0.7,1.5-1.5,1.5h-18.2 C429.9,233.9,429.1,233.2,429.1,232.3z M437.1,201.9c-0.7,0.7-1.2,0.8-2,0.8c-0.5,0-0.7-0.2-0.7-0.6c0-0.2,0.1-0.4,0.3-0.7 l2.9-3.6c0.5-0.5,0.9-0.9,1.7-0.9h0.7c0.8,0,1.2,0.4,1.7,0.9l2.9,3.6c0.2,0.3,0.3,0.5,0.3,0.7c0,0.3-0.3,0.6-0.8,0.6 c-0.8,0-1.3-0.1-2-0.8l-2.4-2.1L437.1,201.9z"/> <linearGradient id="XMLID_11_" gradientUnits="userSpaceOnUse" x1="741.0921" y1="219.4917" x2="34.3076" y2="219.4917"> <stop  offset="0" style="stop-color:#864399"/> <stop  offset="1" style="stop-color:#48297A"/> </linearGradient> <path id="XMLID_376_" class="st9" d="M461.8,206.5c0-0.9,0.7-1.6,1.6-1.6h0.5c0.7,0,1.2,0.4,1.7,0.9l17.6,22.4v-21.8 c0-0.9,0.7-1.6,1.6-1.6c0.9,0,1.6,0.7,1.6,1.6v26.1c0,0.9-0.6,1.5-1.5,1.5h-0.2c-0.7,0-1.2-0.4-1.7-1l-17.9-22.9v22.4 c0,0.9-0.7,1.6-1.6,1.6c-0.9,0-1.6-0.7-1.6-1.6V206.5z"/> <linearGradient id="XMLID_12_" gradientUnits="userSpaceOnUse" x1="741.0966" y1="219.4917" x2="34.3018" y2="219.4917"> <stop  offset="0" style="stop-color:#864399"/> <stop  offset="1" style="stop-color:#48297A"/> </linearGradient> <path id="XMLID_374_" class="st10" d="M498.1,219.6L498.1,219.6c0-8.3,6.1-15,14.6-15c4.7,0,7.6,1.5,10.3,3.8 c0.3,0.3,0.7,0.7,0.7,1.3c0,0.9-0.8,1.6-1.7,1.6c-0.5,0-0.8-0.2-1.1-0.4c-2.2-2-4.7-3.3-8.3-3.3c-6.4,0-11.2,5.2-11.2,11.9v0.1 c0,6.7,4.8,11.9,11.2,11.9c3.6,0,6.1-1.2,8.6-3.5c0.2-0.2,0.6-0.5,1-0.5c0.8,0,1.6,0.7,1.6,1.6c0,0.5-0.2,0.9-0.5,1.2 c-2.8,2.6-6,4.3-10.7,4.3C504.2,234.4,498.1,227.9,498.1,219.6z"/> <linearGradient id="XMLID_13_" gradientUnits="userSpaceOnUse" x1="741.0909" y1="219.4917" x2="34.3158" y2="219.4917"> <stop  offset="0" style="stop-color:#864399"/> <stop  offset="1" style="stop-color:#48297A"/> </linearGradient> <path id="XMLID_369_" class="st11" d="M535.1,206.5c0-0.9,0.7-1.7,1.6-1.7c0.9,0,1.7,0.7,1.7,1.7v26c0,0.9-0.7,1.7-1.7,1.7 c-0.9,0-1.6-0.7-1.6-1.7V206.5z"/> <linearGradient id="XMLID_14_" gradientUnits="userSpaceOnUse" x1="741.0952" y1="219.4299" x2="34.3063" y2="219.4299"> <stop  offset="0" style="stop-color:#864399"/> <stop  offset="1" style="stop-color:#48297A"/> </linearGradient> <path id="XMLID_365_" class="st12" d="M550,231.8l11.7-25.6c0.4-0.9,1-1.4,2.1-1.4h0.2c1,0,1.7,0.5,2,1.4l11.7,25.6 c0.1,0.3,0.2,0.6,0.2,0.8c0,0.9-0.7,1.6-1.6,1.6c-0.8,0-1.3-0.5-1.6-1.2l-3-6.6h-15.9l-3,6.7c-0.3,0.7-0.8,1.1-1.6,1.1 c-0.8,0-1.5-0.7-1.5-1.5C549.8,232.4,549.8,232.1,550,231.8z M570.4,223.3l-6.6-14.8l-6.6,14.8H570.4z"/> <linearGradient id="XMLID_15_" gradientUnits="userSpaceOnUse" x1="741.0948" y1="219.4917" x2="34.3042" y2="219.4917"> <stop  offset="0" style="stop-color:#864399"/> <stop  offset="1" style="stop-color:#48297A"/> </linearGradient> <path id="XMLID_290_" class="st13" d="M604.5,219.6L604.5,219.6c0-8.3,6.5-15,15.4-15c8.9,0,15.3,6.7,15.3,14.9v0.1 c0,8.2-6.5,15-15.4,15C610.9,234.4,604.5,227.8,604.5,219.6z M628.6,219.6L628.6,219.6c0-5-3.6-9.2-8.8-9.2c-5.1,0-8.7,4-8.7,9 v0.1c0,5,3.6,9.1,8.8,9.1C625.1,228.6,628.6,224.5,628.6,219.6z"/> <linearGradient id="XMLID_16_" gradientUnits="userSpaceOnUse" x1="741.0953" y1="219.4903" x2="34.3024" y2="219.4903"> <stop  offset="0" style="stop-color:#864399"/> <stop  offset="1" style="stop-color:#48297A"/> </linearGradient> <path id="XMLID_288_" class="st14" d="M645.9,208.1c0-1.8,1.4-3.2,3.2-3.2h0.7c1.5,0,2.4,0.7,3.3,1.9l12.3,16.1v-14.9 c0-1.7,1.4-3.1,3.1-3.1c1.7,0,3.1,1.4,3.1,3.1v23c0,1.8-1.4,3.2-3.2,3.2h-0.2c-1.5,0-2.4-0.7-3.3-1.9l-12.7-16.7v15.5 c0,1.7-1.4,3.1-3.1,3.1c-1.7,0-3.1-1.4-3.1-3.1V208.1z"/> <linearGradient id="XMLID_17_" gradientUnits="userSpaceOnUse" x1="721.8386" y1="219.3668" x2="15.0476" y2="219.3668"> <stop  offset="0" style="stop-color:#864399"/> <stop  offset="1" style="stop-color:#48297A"/> </linearGradient> <path id="XMLID_207_" class="st15" d="M686,208c0-1.8,1.4-3.2,3.2-3.2c1.8,0,3.2,1.4,3.2,3.2v20.2h11.8c1.6,0,2.9,1.3,2.9,2.9 s-1.3,2.9-2.9,2.9h-15c-1.8,0-3.2-1.4-3.2-3.2V208z"/> <linearGradient id="XMLID_18_" gradientUnits="userSpaceOnUse" x1="721.8385" y1="219.4903" x2="15.0495" y2="219.4903"> <stop  offset="0" style="stop-color:#864399"/> <stop  offset="1" style="stop-color:#48297A"/> </linearGradient> <path id="XMLID_205_" class="st16" d="M716.8,208c0-1.8,1.4-3.2,3.2-3.2c1.8,0,3.2,1.4,3.2,3.2v23c0,1.8-1.4,3.2-3.2,3.2 c-1.8,0-3.2-1.4-3.2-3.2V208z"/> <linearGradient id="XMLID_19_" gradientUnits="userSpaceOnUse" x1="721.8385" y1="219.6152" x2="15.046" y2="219.6152"> <stop  offset="0" style="stop-color:#864399"/> <stop  offset="1" style="stop-color:#48297A"/> </linearGradient> <path id="XMLID_203_" class="st17" d="M735.4,208.2c0-1.8,1.4-3.2,3.2-3.2h16.2c1.6,0,2.9,1.3,2.9,2.9c0,1.6-1.3,2.9-2.9,2.9h-13 v6.2h11.2c1.6,0,2.9,1.3,2.9,2.9c0,1.6-1.3,2.9-2.9,2.9h-11.2v8.3c0,1.8-1.4,3.2-3.2,3.2c-1.8,0-3.2-1.4-3.2-3.2V208.2z"/> <linearGradient id="XMLID_20_" gradientUnits="userSpaceOnUse" x1="721.8389" y1="219.4917" x2="15.0551" y2="219.4917"> <stop  offset="0" style="stop-color:#864399"/> <stop  offset="1" style="stop-color:#48297A"/> </linearGradient> <path id="XMLID_201_" class="st18" d="M767.4,230.8v-22.5c0-1.8,1.4-3.2,3.2-3.2h16c1.6,0,2.8,1.3,2.8,2.9c0,1.6-1.3,2.8-2.8,2.8 h-12.9v5.9h11c1.6,0,2.9,1.3,2.9,2.9s-1.3,2.8-2.9,2.8h-11v6.1h13.1c1.6,0,2.9,1.3,2.9,2.9c0,1.6-1.3,2.8-2.9,2.8h-16.2 C768.8,233.9,767.4,232.5,767.4,230.8z"/> </g> </g> </svg>